<svg width="62" height="61" viewBox="0 0 62 61" fill="none" xmlns="http://www.w3.org/2000/svg">
<path d="M31 48.459C24.75 48.459 19.225 45.259 16 40.459C16.075 35.459 26 32.709 31 32.709C36 32.709 45.925 35.459 46 40.459C44.3472 42.92 42.1146 44.9369 39.4989 46.3319C36.8832 47.727 33.9645 48.4575 31 48.459ZM31 12.959C32.9891 12.959 34.8968 13.7492 36.3033 15.1557C37.7098 16.5622 38.5 18.4699 38.5 20.459C38.5 22.4481 37.7098 24.3558 36.3033 25.7623C34.8968 27.1688 32.9891 27.959 31 27.959C29.0109 27.959 27.1032 27.1688 25.6967 25.7623C24.2902 24.3558 23.5 22.4481 23.5 20.459C23.5 18.4699 24.2902 16.5622 25.6967 15.1557C27.1032 13.7492 29.0109 12.959 31 12.959ZM31 5.45898C27.717 5.45898 24.4661 6.10563 21.4329 7.362C18.3998 8.61836 15.6438 10.4599 13.3223 12.7813C8.63392 17.4697 6 23.8286 6 30.459C6 37.0894 8.63392 43.4482 13.3223 48.1367C15.6438 50.4581 18.3998 52.2996 21.4329 53.556C24.4661 54.8123 27.717 55.459 31 55.459C37.6304 55.459 43.9893 52.8251 48.6777 48.1367C53.3661 43.4482 56 37.0894 56 30.459C56 16.634 44.75 5.45898 31 5.45898Z" fill="#070707"/>
</svg>
