<svg width="56" height="56" viewBox="0 0 56 56" fill="none" xmlns="http://www.w3.org/2000/svg">
<path d="M23.3333 49.0003H32.6667C32.6667 51.567 30.5667 53.667 28 53.667C25.4333 53.667 23.3333 51.567 23.3333 49.0003ZM49 44.3337V46.667H7V44.3337L11.6667 39.667V25.667C11.6667 18.4337 16.3333 12.1337 23.3333 10.0337V9.33366C23.3333 6.76699 25.4333 4.66699 28 4.66699C30.5667 4.66699 32.6667 6.76699 32.6667 9.33366V10.0337C39.6667 12.1337 44.3333 18.4337 44.3333 25.667V39.667L49 44.3337ZM39.6667 25.667C39.6667 19.1337 34.5333 14.0003 28 14.0003C21.4667 14.0003 16.3333 19.1337 16.3333 25.667V42.0003H39.6667V25.667Z" fill="#F5F1F1"/>
</svg>
