<svg width="34" height="34" viewBox="0 0 34 34" fill="none" xmlns="http://www.w3.org/2000/svg">
<g clip-path="url(#clip0_2943_1832)">
<path d="M29.2852 3.91143L30.0887 4.71494C30.7129 5.33916 30.7129 6.34854 30.0887 6.96611L28.1562 8.90518L25.0949 5.84385L27.0273 3.91143C27.6516 3.28721 28.6609 3.28721 29.2785 3.91143H29.2852ZM13.932 17.0134L22.8438 8.09502L25.9051 11.1563L16.9867 20.0681C16.7941 20.2606 16.5551 20.4001 16.2961 20.4731L12.4113 21.5821L13.5203 17.6974C13.5934 17.4384 13.7328 17.1993 13.9254 17.0067L13.932 17.0134ZM24.7762 1.66025L11.6742 14.7556C11.0965 15.3333 10.6781 16.0438 10.459 16.8208L8.55976 23.4614C8.40039 24.0192 8.55313 24.6169 8.96484 25.0286C9.37656 25.4403 9.97422 25.5931 10.532 25.4337L17.1727 23.5345C17.9563 23.3087 18.6668 22.8903 19.2379 22.3192L32.3398 9.22393C34.2059 7.35791 34.2059 4.32979 32.3398 2.46377L31.5363 1.66025C29.6703 -0.205762 26.6422 -0.205762 24.7762 1.66025ZM5.84375 4.2501C2.61641 4.2501 0 6.8665 0 10.0938V28.1563C0 31.3837 2.61641 34.0001 5.84375 34.0001H23.9062C27.1336 34.0001 29.75 31.3837 29.75 28.1563V20.7188C29.75 19.8356 29.0395 19.1251 28.1562 19.1251C27.273 19.1251 26.5625 19.8356 26.5625 20.7188V28.1563C26.5625 29.6239 25.3738 30.8126 23.9062 30.8126H5.84375C4.37617 30.8126 3.1875 29.6239 3.1875 28.1563V10.0938C3.1875 8.62627 4.37617 7.4376 5.84375 7.4376H13.2812C14.1645 7.4376 14.875 6.72705 14.875 5.84385C14.875 4.96064 14.1645 4.2501 13.2812 4.2501H5.84375Z" fill="#F5F1F1"/>
</g>
<defs>
<clipPath id="clip0_2943_1832">
<rect width="34" height="34" fill="white"/>
</clipPath>
</defs>
</svg>
