<svg width="10" height="10" viewBox="0 0 10 10" fill="none" xmlns="http://www.w3.org/2000/svg">
<g clip-path="url(#clip0_2692_1694)">
<path fill-rule="evenodd" clip-rule="evenodd" d="M1.25 1.875C1.25 1.70924 1.31585 1.55027 1.43306 1.43306C1.55027 1.31585 1.70924 1.25 1.875 1.25H8.125C8.29076 1.25 8.44973 1.31585 8.56694 1.43306C8.68415 1.55027 8.75 1.70924 8.75 1.875V2.74417C8.74995 2.96516 8.66212 3.17709 8.50583 3.33333L6.25 5.58917V8.6825C6.25001 8.76063 6.23005 8.83747 6.19201 8.90572C6.15396 8.97397 6.09911 9.03136 6.03264 9.07244C5.96618 9.11352 5.89032 9.13693 5.81226 9.14044C5.73421 9.14395 5.65655 9.12745 5.58667 9.0925L4.03792 8.31833C3.9514 8.27508 3.87865 8.20859 3.82779 8.12631C3.77694 8.04403 3.75 7.94922 3.75 7.8525V5.58917L1.49417 3.33333C1.33788 3.17709 1.25005 2.96516 1.25 2.74417V1.875ZM2.08333 2.08333V2.74417L4.4 5.06083C4.4581 5.11886 4.5042 5.18778 4.53566 5.26363C4.56712 5.33949 4.58332 5.4208 4.58333 5.50292V7.65917L5.41667 8.07583V5.50292C5.41667 5.33708 5.4825 5.17792 5.6 5.06125L7.91667 2.74375V2.08333H2.08333Z" fill="#F5F1F1"/>
</g>
<defs>
<clipPath id="clip0_2692_1694">
<rect width="10" height="10" fill="white"/>
</clipPath>
</defs>
</svg>
