<svg width="31" height="31" viewBox="0 0 31 31" fill="none" xmlns="http://www.w3.org/2000/svg">
<path d="M19.453 15.2786C19.6218 15.3555 19.7999 15.3844 19.9686 15.3844C20.353 15.3844 20.728 15.2209 20.9999 14.9229L23.1936 12.4998H26.0624C27.6093 12.4998 28.8749 11.2017 28.8749 9.61516V4.80747C28.8749 3.22093 27.6093 1.92285 26.0624 1.92285H18.5624C17.0155 1.92285 15.7499 3.22093 15.7499 4.80747V9.60554C15.7499 11.1921 17.0155 12.4902 18.5624 12.4902V13.9325C18.5624 14.5382 18.9093 15.0575 19.453 15.2786ZM17.6249 4.80747C17.6249 4.27862 18.0468 3.84593 18.5624 3.84593H26.0624C26.578 3.84593 26.9999 4.27862 26.9999 4.80747V9.61516C26.9999 10.144 26.578 10.5767 26.0624 10.5767H22.3686L20.4374 12.7113V10.5767H18.5624C18.0468 10.5767 17.6249 10.144 17.6249 9.61516V4.80747ZM10.5936 17.3075C8.00613 17.3075 5.90613 15.1536 5.90613 12.4998C5.90613 9.84593 8.00613 7.69208 10.5936 7.69208C13.1811 7.69208 15.2811 9.84593 15.2811 12.4998C15.2811 15.1536 13.1811 17.3075 10.5936 17.3075ZM10.5936 9.61516C9.04675 9.61516 7.78113 10.9132 7.78113 12.4998C7.78113 14.0863 9.04675 15.3844 10.5936 15.3844C12.1405 15.3844 13.4061 14.0863 13.4061 12.4998C13.4061 10.9132 12.1405 9.61516 10.5936 9.61516ZM10.5936 28.8363C7.87488 28.8363 5.79363 28.0671 4.38738 26.5594C2.57706 24.6219 2.61925 22.1507 2.62394 21.9075V21.8911C2.62488 20.4421 3.80613 19.2305 5.26863 19.2305H15.9186C17.3718 19.2305 18.5624 20.4411 18.5624 21.9392V21.9488C18.5661 22.1238 18.6186 24.6123 16.7999 26.569C15.3936 28.0777 13.3124 28.8459 10.5936 28.8459V28.8363ZM5.26863 21.1517C4.84675 21.1517 4.49988 21.5075 4.49988 21.9402V21.9459C4.49706 22.0834 4.47363 23.893 5.75613 25.2536C6.78738 26.3584 8.41863 26.9152 10.5936 26.9152C12.7686 26.9152 14.3905 26.3575 15.4311 25.2536C16.7436 23.8604 16.6968 21.9969 16.6874 21.9777C16.6874 21.5065 16.3405 21.1517 15.9186 21.1517H5.26863Z" fill="#F5F1F1"/>
</svg>
