<svg width="25" height="21" viewBox="0 0 25 21" fill="none" xmlns="http://www.w3.org/2000/svg">
<path d="M6.25 6.78809H3.125C2.62772 6.78809 2.15081 6.98563 1.79917 7.33726C1.44754 7.68889 1.25 8.16581 1.25 8.66309C1.25 9.16037 1.44754 9.63728 1.79917 9.98891C2.15081 10.3405 2.62772 10.5381 3.125 10.5381H4.375C4.87228 10.5381 5.34919 10.7356 5.70083 11.0873C6.05246 11.4389 6.25 11.9158 6.25 12.4131C6.25 12.9104 6.05246 13.3873 5.70083 13.7389C5.34919 14.0905 4.87228 14.2881 4.375 14.2881H1.25M3.75 14.2881V15.5381M3.75 5.53809V6.78809" stroke="#F5F1F1" stroke-width="2" stroke-linecap="round" stroke-linejoin="round"/>
<path d="M17.5 19.7881C19.2867 19.7881 20.9289 19.4271 22.143 18.82C23.3272 18.2279 24.25 17.3174 24.25 16.1631C24.25 15.0087 23.3272 14.0983 22.143 13.5062C20.9289 12.8991 19.2867 12.5381 17.5 12.5381C15.7133 12.5381 14.0711 12.8991 12.857 13.5062C11.6728 14.0983 10.75 15.0087 10.75 16.1631C10.75 17.3174 11.6728 18.2279 12.857 18.82C14.0711 19.4271 15.7133 19.7881 17.5 19.7881Z" fill="#F5F1F1" stroke="#F5F1F1"/>
<path d="M17.5 16.0381C19.2867 16.0381 20.9289 15.6771 22.143 15.07C23.3272 14.4779 24.25 13.5674 24.25 12.4131C24.25 11.2587 23.3272 10.3483 22.143 9.75616C20.9289 9.14912 19.2867 8.78809 17.5 8.78809C15.7133 8.78809 14.0711 9.14912 12.857 9.75616C11.6728 10.3483 10.75 11.2587 10.75 12.4131C10.75 13.5674 11.6728 14.4779 12.857 15.07C14.0711 15.6771 15.7133 16.0381 17.5 16.0381Z" fill="#F5F1F1" stroke="#F5F1F1"/>
<path d="M17.5 12.2881C19.2867 12.2881 20.9289 11.9271 22.143 11.32C23.3272 10.7279 24.25 9.81744 24.25 8.66309C24.25 7.50873 23.3272 6.59825 22.143 6.00616C20.9289 5.39912 19.2867 5.03809 17.5 5.03809C15.7133 5.03809 14.0711 5.39912 12.857 6.00616C11.6728 6.59825 10.75 7.50873 10.75 8.66309C10.75 9.81744 11.6728 10.7279 12.857 11.32C14.0711 11.9271 15.7133 12.2881 17.5 12.2881Z" fill="#F5F1F1" stroke="#F5F1F1"/>
<path d="M17.5 8.53809C19.2867 8.53809 20.9289 8.17705 22.143 7.57001C23.3272 6.97792 24.25 6.06744 24.25 4.91309C24.25 3.75873 23.3272 2.84825 22.143 2.25616C20.9289 1.64912 19.2867 1.28809 17.5 1.28809C15.7133 1.28809 14.0711 1.64912 12.857 2.25616C11.6728 2.84825 10.75 3.75873 10.75 4.91309C10.75 6.06744 11.6728 6.97792 12.857 7.57001C14.0711 8.17705 15.7133 8.53809 17.5 8.53809Z" fill="#F5F1F1" stroke="#F5F1F1"/>
</svg>
