<svg width="32" height="32" viewBox="0 0 32 32" fill="none" xmlns="http://www.w3.org/2000/svg">
<path d="M30.9034 9.86939C30.8866 8.60766 30.6504 7.35847 30.2054 6.1777C29.8194 5.18173 29.23 4.27721 28.4747 3.52193C27.7195 2.76665 26.8149 2.17723 25.819 1.79132C24.6534 1.35377 23.422 1.11718 22.1773 1.09163C20.5746 1.01999 20.0665 1 15.9983 1C11.9301 1 11.4087 1 9.81775 1.09163C8.57357 1.11737 7.34276 1.35396 6.1777 1.79132C5.18157 2.17696 4.27691 2.76629 3.5216 3.5216C2.76629 4.27691 2.17696 5.18157 1.79131 6.1777C1.35289 7.3424 1.11682 8.57349 1.09329 9.81775C1.02166 11.422 1 11.9301 1 15.9983C1 20.0665 1 20.5863 1.09329 22.1789C1.11828 23.425 1.35318 24.6545 1.79131 25.8223C2.17761 26.8181 2.76737 27.7224 3.52294 28.4774C4.2785 29.2324 5.18325 29.8215 6.17937 30.207C7.34124 30.6621 8.57226 30.9157 9.81942 30.9567C11.4237 31.0283 11.9318 31.05 16 31.05C20.0682 31.05 20.5896 31.05 22.1806 30.9567C23.4253 30.9322 24.6568 30.6961 25.8223 30.2587C26.818 29.8723 27.7223 29.2827 28.4775 28.5275C29.2327 27.7723 29.8223 26.868 30.2087 25.8723C30.6468 24.7061 30.8817 23.4767 30.9067 22.2289C30.9783 20.6263 31 20.1182 31 16.0483C30.9967 11.9801 30.9967 11.4637 30.9034 9.86939ZM15.9883 23.6916C11.7336 23.6916 8.28676 20.2448 8.28676 15.99C8.28676 11.7352 11.7336 8.28843 15.9883 8.28843C18.0309 8.28843 19.9899 9.09984 21.4342 10.5442C22.8785 11.9885 23.6899 13.9474 23.6899 15.99C23.6899 18.0326 22.8785 19.9915 21.4342 21.4358C19.9899 22.8802 18.0309 23.6916 15.9883 23.6916ZM23.9964 9.79942C23.7605 9.79964 23.5269 9.75334 23.3089 9.66317C23.091 9.57299 22.8929 9.44072 22.7261 9.27391C22.5593 9.10711 22.427 8.90905 22.3368 8.69106C22.2467 8.47308 22.2004 8.23945 22.2006 8.00355C22.2006 7.76783 22.247 7.53441 22.3372 7.31662C22.4274 7.09884 22.5597 6.90096 22.7263 6.73427C22.893 6.56759 23.0909 6.43537 23.3087 6.34516C23.5265 6.25495 23.7599 6.20852 23.9956 6.20852C24.2313 6.20852 24.4648 6.25495 24.6825 6.34516C24.9003 6.43537 25.0982 6.56759 25.2649 6.73427C25.4316 6.90096 25.5638 7.09884 25.654 7.31662C25.7442 7.53441 25.7907 7.76783 25.7907 8.00355C25.7907 8.99645 24.9877 9.79942 23.9964 9.79942Z" fill="#00A3FF"/>
<path d="M15.9891 20.9929C18.7521 20.9929 20.9919 18.753 20.9919 15.9901C20.9919 13.2271 18.7521 10.9873 15.9891 10.9873C13.2261 10.9873 10.9863 13.2271 10.9863 15.9901C10.9863 18.753 13.2261 20.9929 15.9891 20.9929Z" fill="#00A3FF"/>
</svg>
