<svg width="25" height="25" viewBox="0 0 25 25" fill="none" xmlns="http://www.w3.org/2000/svg">
<path d="M10.9477 15.7229L10.8477 15.8229L10.7377 15.7229C5.98766 11.4129 2.84766 8.56285 2.84766 5.67285C2.84766 3.67285 4.34766 2.17285 6.34766 2.17285C7.88766 2.17285 9.38766 3.17285 9.91766 4.53285H11.7777C12.3077 3.17285 13.8077 2.17285 15.3477 2.17285C17.3477 2.17285 18.8477 3.67285 18.8477 5.67285C18.8477 8.56285 15.7077 11.4129 10.9477 15.7229ZM15.3477 0.172852C13.6077 0.172852 11.9377 0.982852 10.8477 2.25285C9.75766 0.982852 8.08766 0.172852 6.34766 0.172852C3.26766 0.172852 0.847656 2.58285 0.847656 5.67285C0.847656 9.44285 4.24766 12.5329 9.39766 17.2029L10.8477 18.5229L12.2977 17.2029C17.4477 12.5329 20.8477 9.44285 20.8477 5.67285C20.8477 2.58285 18.4277 0.172852 15.3477 0.172852Z" fill="#FF005C"/>
</svg>
