<svg width="118" height="48" viewBox="0 0 118 48" fill="none" xmlns="http://www.w3.org/2000/svg">
<path d="M11.2727 0.954544V47.5H5.63636V0.954544H11.2727ZM27.2102 26.5V47.5H21.8466V12.5909H27.0284V18.0455H27.483C28.3011 16.2727 29.5436 14.8485 31.2102 13.7727C32.8769 12.6818 35.0284 12.1364 37.6648 12.1364C40.0284 12.1364 42.0966 12.6212 43.8693 13.5909C45.642 14.5455 47.0208 16 48.0057 17.9545C48.9905 19.8939 49.483 22.3485 49.483 25.3182V47.5H44.1193V25.6818C44.1193 22.9394 43.4072 20.803 41.983 19.2727C40.5587 17.7273 38.6042 16.9545 36.1193 16.9545C34.4072 16.9545 32.8769 17.3258 31.5284 18.0682C30.1951 18.8106 29.142 19.8939 28.3693 21.3182C27.5966 22.7424 27.2102 24.4697 27.2102 26.5Z" fill="#F5F1F1"/>
<path d="M46.1136 47.5V30.0455H48.2273V37.8182H57.5341V30.0455H59.6477V47.5H57.5341V39.6932H48.2273V47.5H46.1136ZM68.9247 47.7727C67.7429 47.7727 66.706 47.4915 65.8139 46.929C64.9276 46.3665 64.2344 45.5795 63.7344 44.5682C63.2401 43.5568 62.9929 42.375 62.9929 41.0227C62.9929 39.6591 63.2401 38.4687 63.7344 37.4517C64.2344 36.4347 64.9276 35.6449 65.8139 35.0824C66.706 34.5199 67.7429 34.2386 68.9247 34.2386C70.1065 34.2386 71.1406 34.5199 72.027 35.0824C72.919 35.6449 73.6122 36.4347 74.1065 37.4517C74.6065 38.4687 74.8565 39.6591 74.8565 41.0227C74.8565 42.375 74.6065 43.5568 74.1065 44.5682C73.6122 45.5795 72.919 46.3665 72.027 46.929C71.1406 47.4915 70.1065 47.7727 68.9247 47.7727ZM68.9247 45.9659C69.8224 45.9659 70.5611 45.7358 71.1406 45.2756C71.7202 44.8153 72.1491 44.2102 72.4276 43.4602C72.706 42.7102 72.8452 41.8977 72.8452 41.0227C72.8452 40.1477 72.706 39.3324 72.4276 38.5767C72.1491 37.821 71.7202 37.2102 71.1406 36.7443C70.5611 36.2784 69.8224 36.0455 68.9247 36.0455C68.027 36.0455 67.2884 36.2784 66.7088 36.7443C66.1293 37.2102 65.7003 37.821 65.4219 38.5767C65.1435 39.3324 65.0043 40.1477 65.0043 41.0227C65.0043 41.8977 65.1435 42.7102 65.4219 43.4602C65.7003 44.2102 66.1293 44.8153 66.7088 45.2756C67.2884 45.7358 68.027 45.9659 68.9247 45.9659ZM77.9268 47.5V34.4091H79.87V36.4545H80.0405C80.3132 35.7557 80.7536 35.2131 81.3615 34.8267C81.9695 34.4347 82.6996 34.2386 83.5518 34.2386C84.4155 34.2386 85.1342 34.4347 85.7081 34.8267C86.2876 35.2131 86.7393 35.7557 87.0632 36.4545H87.1996C87.5348 35.7784 88.0376 35.2415 88.7081 34.8438C89.3786 34.4403 90.1825 34.2386 91.12 34.2386C92.2905 34.2386 93.2479 34.6051 93.9922 35.3381C94.7365 36.0653 95.1087 37.1989 95.1087 38.7386V47.5H93.0973V38.7386C93.0973 37.7727 92.8331 37.0824 92.3047 36.6676C91.7763 36.2528 91.1541 36.0455 90.4382 36.0455C89.5178 36.0455 88.8047 36.3239 88.299 36.8807C87.7933 37.4318 87.5405 38.1307 87.5405 38.9773V47.5H85.495V38.5341C85.495 37.7898 85.2536 37.1903 84.7706 36.7358C84.2876 36.2756 83.6655 36.0455 82.9041 36.0455C82.3814 36.0455 81.8928 36.1847 81.4382 36.4631C80.9893 36.7415 80.6257 37.1278 80.3473 37.6222C80.0746 38.1108 79.9382 38.6761 79.9382 39.3182V47.5H77.9268ZM104.275 47.7727C103.013 47.7727 101.925 47.4943 101.011 46.9375C100.102 46.375 99.3999 45.5909 98.9055 44.5852C98.4169 43.5739 98.1726 42.3977 98.1726 41.0568C98.1726 39.7159 98.4169 38.5341 98.9055 37.5114C99.3999 36.483 100.087 35.6818 100.968 35.108C101.854 34.5284 102.888 34.2386 104.07 34.2386C104.752 34.2386 105.425 34.3523 106.09 34.5795C106.755 34.8068 107.36 35.1761 107.906 35.6875C108.451 36.1932 108.886 36.8636 109.21 37.6989C109.533 38.5341 109.695 39.5625 109.695 40.7841V41.6364H99.6044V39.8977H107.65C107.65 39.1591 107.502 38.5 107.207 37.9205C106.917 37.3409 106.502 36.8835 105.962 36.5483C105.428 36.2131 104.798 36.0455 104.07 36.0455C103.269 36.0455 102.576 36.2443 101.991 36.642C101.411 37.0341 100.965 37.5455 100.653 38.1761C100.34 38.8068 100.184 39.483 100.184 40.2045V41.3636C100.184 42.3523 100.354 43.1903 100.695 43.8778C101.042 44.5597 101.522 45.0795 102.136 45.4375C102.749 45.7898 103.462 45.9659 104.275 45.9659C104.803 45.9659 105.281 45.892 105.707 45.7443C106.138 45.5909 106.511 45.3636 106.823 45.0625C107.136 44.7557 107.377 44.375 107.548 43.9205L109.491 44.4659C109.286 45.125 108.942 45.7045 108.46 46.2045C107.977 46.6989 107.38 47.0852 106.67 47.3636C105.96 47.6364 105.161 47.7727 104.275 47.7727Z" fill="#F5F1F1"/>
</svg>
