<svg width="30" height="30" viewBox="0 0 30 30" fill="none" xmlns="http://www.w3.org/2000/svg">
<path d="M19.2939 17.5786H18.3905L18.0703 17.2699C19.2297 15.9251 19.8669 14.2083 19.8656 12.4328C19.8656 10.9627 19.4297 9.52569 18.613 8.30337C17.7963 7.08105 16.6354 6.12837 15.2772 5.56579C13.9191 5.00322 12.4246 4.85603 10.9827 5.14282C9.54092 5.42962 8.21652 6.13753 7.17703 7.17703C6.13753 8.21652 5.42962 9.54092 5.14282 10.9827C4.85603 12.4246 5.00322 13.9191 5.56579 15.2772C6.12837 16.6354 7.08105 17.7963 8.30337 18.613C9.52569 19.4297 10.9627 19.8656 12.4328 19.8656C14.2739 19.8656 15.9663 19.191 17.2699 18.0703L17.5786 18.3905V19.2939L23.2962 25L25 23.2962L19.2939 17.5786ZM12.4328 17.5786C9.58548 17.5786 7.28702 15.2802 7.28702 12.4328C7.28702 9.58548 9.58548 7.28702 12.4328 7.28702C15.2802 7.28702 17.5786 9.58548 17.5786 12.4328C17.5786 15.2802 15.2802 17.5786 12.4328 17.5786Z" fill="#070707"/>
</svg>
