<svg width="60" height="60" viewBox="0 0 60 60" fill="none" xmlns="http://www.w3.org/2000/svg">
<g clip-path="url(#clip0_2654_2129)">
<path d="M54.2826 26.2003L48.6992 24.5336C48.3132 23.1858 47.7823 21.8837 47.1159 20.6503L49.8492 15.5336C49.9518 15.3405 49.9893 15.1194 49.9563 14.9032C49.9233 14.6871 49.8214 14.4873 49.6659 14.3336L45.6826 10.3336C45.5289 10.178 45.3291 10.0762 45.1129 10.0432C44.8968 10.0101 44.6757 10.0477 44.4826 10.1503L39.3992 12.8669C38.1536 12.168 36.8344 11.6091 35.4659 11.2003L33.7992 5.68359C33.7287 5.48028 33.5955 5.30459 33.4188 5.18179C33.2421 5.059 33.031 4.99543 32.8159 5.00026H27.1826C26.9661 5.00126 26.7557 5.07131 26.5818 5.20021C26.4079 5.32911 26.2797 5.51013 26.2159 5.71692L24.5492 11.2169C23.1692 11.6236 21.8388 12.1826 20.5826 12.8836L15.5826 10.1836C15.3894 10.081 15.1684 10.0435 14.9522 10.0765C14.736 10.1095 14.5363 10.2114 14.3826 10.3669L10.3326 14.3169C10.177 14.4706 10.0752 14.6704 10.0421 14.8866C10.0091 15.1027 10.0467 15.3238 10.1492 15.5169L12.8492 20.5169C12.1493 21.7679 11.5903 23.0927 11.1826 24.4669L5.66589 26.1336C5.45909 26.1975 5.27807 26.3256 5.14917 26.4995C5.02028 26.6734 4.95023 26.8838 4.94922 27.1003V32.7336C4.95023 32.95 5.02028 33.1605 5.14917 33.3343C5.27807 33.5082 5.45909 33.6364 5.66589 33.7003L11.2159 35.3669C11.6281 36.7183 12.187 38.0205 12.8826 39.2503L10.1492 44.4836C10.0467 44.6767 10.0091 44.8978 10.0421 45.114C10.0752 45.3301 10.177 45.5299 10.3326 45.6836L14.3159 49.6669C14.4696 49.8225 14.6693 49.9243 14.8855 49.9573C15.1017 49.9904 15.3228 49.9528 15.5159 49.8503L20.6659 47.1003C21.8842 47.7576 23.1692 48.2828 24.4992 48.6669L26.1659 54.2836C26.2297 54.4904 26.3579 54.6714 26.5318 54.8003C26.7057 54.9292 26.9161 54.9992 27.1326 55.0003H32.7659C32.9823 54.9992 33.1928 54.9292 33.3666 54.8003C33.5405 54.6714 33.6687 54.4904 33.7326 54.2836L35.3992 48.6503C36.7178 48.2642 37.9917 47.739 39.1992 47.0836L44.3826 49.8503C44.5757 49.9528 44.7967 49.9904 45.0129 49.9573C45.2291 49.9243 45.4289 49.8225 45.5826 49.6669L49.5659 45.6836C49.7214 45.5299 49.8233 45.3301 49.8563 45.114C49.8893 44.8978 49.8518 44.6767 49.7492 44.4836L46.9826 39.3169C47.6448 38.1048 48.1756 36.8253 48.5659 35.5003L54.1826 33.8336C54.3893 33.7697 54.5704 33.6415 54.6993 33.4677C54.8282 33.2938 54.8982 33.0834 54.8992 32.8669V27.1836C54.909 26.9763 54.8552 26.771 54.745 26.5953C54.6348 26.4195 54.4734 26.2817 54.2826 26.2003ZM29.9992 39.1669C28.1862 39.1669 26.4139 38.6293 24.9065 37.6221C23.399 36.6148 22.2241 35.1832 21.5303 33.5082C20.8365 31.8332 20.655 29.9901 21.0087 28.2119C21.3624 26.4338 22.2354 24.8004 23.5174 23.5184C24.7994 22.2365 26.4327 21.3634 28.2109 21.0097C29.9891 20.656 31.8322 20.8376 33.5072 21.5314C35.1821 22.2252 36.6138 23.4001 37.621 24.9075C38.6283 26.415 39.1659 28.1873 39.1659 30.0003C39.1659 32.4314 38.2001 34.763 36.481 36.4821C34.762 38.2012 32.4304 39.1669 29.9992 39.1669Z" fill="#F5F1F1"/>
</g>
<defs>
<clipPath id="clip0_2654_2129">
<rect width="60" height="60" fill="white"/>
</clipPath>
</defs>
</svg>
